<?xml version="1.0" encoding="UTF-8" standalone="no"?>
<!-- Created with Inkscape (http://www.inkscape.org/) -->

<svg
   xmlns:dc="http://purl.org/dc/elements/1.1/"
   xmlns:cc="http://creativecommons.org/ns#"
   xmlns:rdf="http://www.w3.org/1999/02/22-rdf-syntax-ns#"
   xmlns:svg="http://www.w3.org/2000/svg"
   xmlns="http://www.w3.org/2000/svg"
   xmlns:sodipodi="http://sodipodi.sourceforge.net/DTD/sodipodi-0.dtd"
   xmlns:inkscape="http://www.inkscape.org/namespaces/inkscape"
   width="800px"
   height="600px"
   id="svg2985"
   version="1.1"
   inkscape:version="0.48.4 r9939"
   sodipodi:docname="cipher.png">
  <defs
     id="defs2987">
    <marker
       inkscape:stockid="Arrow1Lstart"
       orient="auto"
       refY="0.0"
       refX="0.0"
       id="Arrow1Lstart"
       style="overflow:visible">
      <path
         id="path4255"
         d="M 0.0,0.0 L 5.0,-5.0 L -12.5,0.0 L 5.0,5.0 L 0.0,0.0 z "
         style="fill-rule:evenodd;stroke:#000000;stroke-width:1.0pt"
         transform="scale(0.8) translate(12.5,0)" />
    </marker>
    <marker
       inkscape:stockid="Arrow1Lend"
       orient="auto"
       refY="0"
       refX="0"
       id="Arrow1Lend"
       style="overflow:visible">
      <path
         inkscape:connector-curvature="0"
         id="path3810"
         d="M 0,0 5,-5 -12.5,0 5,5 0,0 z"
         style="fill-rule:evenodd;stroke:#000000;stroke-width:1pt"
         transform="matrix(-0.8,0,0,-0.8,-10,0)" />
    </marker>
    <marker
       inkscape:stockid="Arrow1Lend"
       orient="auto"
       refY="0"
       refX="0"
       id="marker4123"
       style="overflow:visible">
      <path
         inkscape:connector-curvature="0"
         id="path4125"
         d="M 0,0 5,-5 -12.5,0 5,5 0,0 z"
         style="fill-rule:evenodd;stroke:#000000;stroke-width:1pt"
         transform="matrix(-0.8,0,0,-0.8,-10,0)" />
    </marker>
    <marker
       inkscape:stockid="Arrow1Lend"
       orient="auto"
       refY="0"
       refX="0"
       id="marker4127"
       style="overflow:visible">
      <path
         inkscape:connector-curvature="0"
         id="path4129"
         d="M 0,0 5,-5 -12.5,0 5,5 0,0 z"
         style="fill-rule:evenodd;stroke:#000000;stroke-width:1pt"
         transform="matrix(-0.8,0,0,-0.8,-10,0)" />
    </marker>
    <marker
       inkscape:stockid="Arrow1Lend"
       orient="auto"
       refY="0"
       refX="0"
       id="marker4131"
       style="overflow:visible">
      <path
         inkscape:connector-curvature="0"
         id="path4133"
         d="M 0,0 5,-5 -12.5,0 5,5 0,0 z"
         style="fill-rule:evenodd;stroke:#000000;stroke-width:1pt"
         transform="matrix(-0.8,0,0,-0.8,-10,0)" />
    </marker>
    <marker
       inkscape:stockid="Arrow1Lend"
       orient="auto"
       refY="0"
       refX="0"
       id="marker4135"
       style="overflow:visible">
      <path
         inkscape:connector-curvature="0"
         id="path4137"
         d="M 0,0 5,-5 -12.5,0 5,5 0,0 z"
         style="fill-rule:evenodd;stroke:#000000;stroke-width:1pt"
         transform="matrix(-0.8,0,0,-0.8,-10,0)" />
    </marker>
    <marker
       inkscape:stockid="Arrow1Lend"
       orient="auto"
       refY="0"
       refX="0"
       id="marker4139"
       style="overflow:visible">
      <path
         inkscape:connector-curvature="0"
         id="path4141"
         d="M 0,0 5,-5 -12.5,0 5,5 0,0 z"
         style="fill-rule:evenodd;stroke:#000000;stroke-width:1pt"
         transform="matrix(-0.8,0,0,-0.8,-10,0)" />
    </marker>
  </defs>
  <sodipodi:namedview
     id="base"
     pagecolor="#ffffff"
     bordercolor="#666666"
     borderopacity="1.0"
     inkscape:pageopacity="0.0"
     inkscape:pageshadow="2"
     inkscape:zoom="1.2"
     inkscape:cx="441.38019"
     inkscape:cy="369.52622"
     inkscape:current-layer="layer1"
     inkscape:document-units="px"
     showgrid="false"
     inkscape:window-width="1855"
     inkscape:window-height="1056"
     inkscape:window-x="65"
     inkscape:window-y="24"
     inkscape:window-maximized="1" />
  <metadata
     id="metadata2990">
    <rdf:RDF>
      <cc:Work
         rdf:about="">
        <dc:format>image/svg+xml</dc:format>
        <dc:type
           rdf:resource="http://purl.org/dc/dcmitype/StillImage" />
        <dc:title></dc:title>
      </cc:Work>
    </rdf:RDF>
  </metadata>
  <g
     id="layer1"
     inkscape:label="Layer 1"
     inkscape:groupmode="layer">
    <rect
       style="fill:#6f917c;fill-opacity:1;stroke:#000000;stroke-width:1.33423424;stroke-linejoin:round;stroke-miterlimit:4;stroke-opacity:1;stroke-dasharray:none;stroke-dashoffset:0"
       id="rect2993-6"
       width="519.88922"
       height="337.22"
       x="131.32114"
       y="93.157257"
       ry="52.569725" />
    <rect
       style="fill:#b7c8be;fill-opacity:1;stroke:#000000;stroke-width:1.5;stroke-linejoin:round;stroke-miterlimit:4;stroke-opacity:1;stroke-dasharray:none;stroke-dashoffset:0"
       id="rect2995"
       width="163.81308"
       height="113.13707"
       x="199.49783"
       y="227.5049"
       ry="0" />
    <rect
       style="fill:#b7c8be;fill-opacity:1;stroke:#000000;stroke-width:1.5;stroke-linejoin:round;stroke-miterlimit:4;stroke-opacity:1;stroke-dasharray:none;stroke-dashoffset:0"
       id="rect2995-8"
       width="163.81308"
       height="113.13707"
       x="402.79105"
       y="257.55692"
       ry="0" />
    <path
       style="fill:none;stroke:#000000;stroke-width:1px;stroke-linecap:butt;stroke-linejoin:miter;stroke-opacity:1;marker-end:url(#Arrow1Lend)"
       d="m 14.471557,317.07172 116.672623,1.17851"
       id="path3027"
       inkscape:connector-curvature="0" />
    <path
       style="fill:none;stroke:#000000;stroke-width:1px;stroke-linecap:butt;stroke-linejoin:miter;stroke-opacity:1;marker-end:url(#Arrow1Lend)"
       d="m 22.721137,170.93632 106.066013,0"
       id="path3031"
       inkscape:connector-curvature="0" />
    <path
       style="fill:none;stroke:#000000;stroke-width:1px;stroke-linecap:butt;stroke-linejoin:miter;stroke-opacity:1;marker-end:url(#Arrow1Lend)"
       d="m 133.5012,319.42874 64.81812,1.17851"
       id="path4611"
       inkscape:connector-curvature="0" />
    <text
       xml:space="preserve"
       style="font-size:40px;font-style:normal;font-weight:normal;line-height:125%;letter-spacing:0px;word-spacing:0px;fill:#000000;fill-opacity:1;stroke:none;font-family:Sans"
       x="46.699966"
       y="301.71393"
       id="text5165"
       sodipodi:linespacing="125%"><tspan
         sodipodi:role="line"
         id="tspan5167"
         x="46.699966"
         y="301.71393"
         style="font-size:24px">Chave</tspan></text>
    <text
       xml:space="preserve"
       style="font-size:40px;font-style:normal;font-weight:normal;line-height:125%;letter-spacing:0px;word-spacing:0px;fill:#000000;fill-opacity:1;stroke:none;font-family:Sans"
       x="39.503269"
       y="105.947"
       id="text5169"
       sodipodi:linespacing="125%"><tspan
         sodipodi:role="line"
         id="tspan5171"
         x="39.503269"
         y="105.947"
         style="font-size:24px">Texto </tspan><tspan
         sodipodi:role="line"
         x="39.503269"
         y="135.94701"
         id="tspan5175"
         style="font-size:24px">em</tspan><tspan
         sodipodi:role="line"
         x="39.503269"
         y="165.94701"
         style="font-size:24px"
         id="tspan4237">Claro</tspan><tspan
         sodipodi:role="line"
         x="39.503269"
         y="195.94701"
         style="font-size:24px"
         id="tspan5361" /></text>
    <text
       xml:space="preserve"
       style="font-size:40px;font-style:normal;font-weight:normal;line-height:125%;letter-spacing:0px;word-spacing:0px;fill:#000000;fill-opacity:1;stroke:none;font-family:Sans"
       x="659.4859"
       y="246.79347"
       id="text5363"
       sodipodi:linespacing="125%"><tspan
         sodipodi:role="line"
         x="659.4859"
         y="246.79347"
         id="tspan5369"
         style="font-size:24px">Texto</tspan><tspan
         sodipodi:role="line"
         x="659.4859"
         y="276.79346"
         style="font-size:24px"
         id="tspan4245">Cifrado</tspan><tspan
         sodipodi:role="line"
         x="659.4859"
         y="306.79346"
         id="tspan5371" /></text>
    <path
       style="fill:none;stroke:#000000;stroke-width:0.93591577px;stroke-linecap:butt;stroke-linejoin:miter;stroke-opacity:1;marker-end:url(#Arrow1Lend)"
       d="m 651.32276,302.90084 65.89741,-0.84"
       id="path5373"
       inkscape:connector-curvature="0" />
    <text
       xml:space="preserve"
       style="font-size:40px;font-style:normal;font-weight:normal;line-height:125%;letter-spacing:0px;word-spacing:0px;fill:#000000;fill-opacity:1;stroke:none;font-family:Sans"
       x="221.56012"
       y="287.69449"
       id="text4229"
       sodipodi:linespacing="125%"><tspan
         sodipodi:role="line"
         id="tspan4231"
         x="221.56012"
         y="287.69449"
         style="font-size:28px">Gerador</tspan></text>
    <text
       xml:space="preserve"
       style="font-size:40px;font-style:normal;font-weight:normal;line-height:125%;letter-spacing:0px;word-spacing:0px;fill:#000000;fill-opacity:1;stroke:none;font-family:Sans"
       x="420.13925"
       y="318.33582"
       id="text4233"
       sodipodi:linespacing="125%"><tspan
         sodipodi:role="line"
         id="tspan4235"
         x="420.13925"
         y="318.33582"
         style="font-size:28px">Algoritmo</tspan></text>
    <path
       style="fill:none;stroke:#000000;stroke-width:1px;stroke-linecap:butt;stroke-linejoin:miter;stroke-opacity:1;marker-end:url(#marker4139)"
       d="m 132.58252,171.02189 284.02123,0.58925 0,86.03133"
       id="path4249"
       inkscape:connector-curvature="0" />
    <rect
       style="fill:#b7c8be;fill-opacity:1;stroke:#000000;stroke-width:1.14599586;stroke-linejoin:round;stroke-miterlimit:4;stroke-opacity:1;stroke-dasharray:none;stroke-dashoffset:0"
       id="rect4901"
       width="53.387016"
       height="138.82907"
       x="522.4928"
       y="99.544945"
       ry="5.0493927e-06" />
    <path
       style="fill:none;stroke:#000000;stroke-width:1px;stroke-linecap:butt;stroke-linejoin:miter;stroke-opacity:1"
       d="m 576.29202,116.81037 -53.62226,-0.58925"
       id="path3021"
       inkscape:connector-curvature="0" />
    <path
       style="fill:none;stroke:#000000;stroke-width:1px;stroke-linecap:butt;stroke-linejoin:miter;stroke-opacity:1"
       d="m 576.06888,133.81248 -53.62226,-0.58925"
       id="path3021-9"
       inkscape:connector-curvature="0" />
    <path
       style="fill:none;stroke:#000000;stroke-width:1px;stroke-linecap:butt;stroke-linejoin:miter;stroke-opacity:1"
       d="m 576.34257,201.95781 -53.62226,-0.58925"
       id="path3021-6"
       inkscape:connector-curvature="0" />
    <path
       style="fill:none;stroke:#000000;stroke-width:1px;stroke-linecap:butt;stroke-linejoin:miter;stroke-opacity:1"
       d="m 575.99739,184.28014 -53.62226,-0.58925"
       id="path3021-2"
       inkscape:connector-curvature="0" />
    <path
       style="fill:none;stroke:#000000;stroke-width:1px;stroke-linecap:butt;stroke-linejoin:miter;stroke-opacity:1"
       d="m 576.55091,167.98931 -53.62226,-0.58925"
       id="path3021-4"
       inkscape:connector-curvature="0" />
    <path
       style="fill:none;stroke:#000000;stroke-width:1px;stroke-linecap:butt;stroke-linejoin:miter;stroke-opacity:1"
       d="m 575.99739,150.69256 -53.62226,-0.58925"
       id="path3021-21"
       inkscape:connector-curvature="0" />
    <path
       style="fill:none;stroke:#000000;stroke-width:1px;stroke-linecap:butt;stroke-linejoin:miter;stroke-opacity:1"
       d="m 576.58665,217.86771 -53.62226,-0.58925"
       id="path3021-0"
       inkscape:connector-curvature="0" />
    <path
       style="fill:#44aa00;fill-opacity:1;stroke:#000000;stroke-width:0.3125;stroke-linejoin:round;stroke-miterlimit:4;stroke-opacity:1;stroke-dasharray:none;stroke-dashoffset:0"
       d="m 551.62009,115.94138 c -11.28646,-0.14176 -22.32552,-0.26746 -24.53125,-0.27934 l -4.01041,-0.0216 0,-7.70833 0,-7.70834 26.04166,0 26.04167,0 0,8.02084 0,8.02083 -1.51042,-0.0332 c -0.83073,-0.0182 -10.74479,-0.14915 -22.03125,-0.29091 z"
       id="path3078"
       inkscape:connector-curvature="0" />
    <path
       style="fill:#44aa00;fill-opacity:1;stroke:#000000;stroke-width:0.3125;stroke-linejoin:round;stroke-miterlimit:4;stroke-opacity:1;stroke-dasharray:none;stroke-dashoffset:0"
       d="m 549.64093,132.92124 c -5.95834,-0.0757 -14.3724,-0.15105 -18.69792,-0.16752 l -7.86458,-0.0299 0,-7.95043 0,-7.95044 11.92708,0.13685 c 6.5599,0.0753 18.27864,0.19939 26.04167,0.27585 l 14.11458,0.139 0,7.88292 0,7.88292 -7.34375,-0.0408 c -4.03906,-0.0224 -12.21875,-0.10273 -18.17708,-0.1784 z"
       id="path3080"
       inkscape:connector-curvature="0" />
    <path
       style="fill:#44aa00;fill-opacity:1;stroke:#000000;stroke-width:0.3125;stroke-linejoin:round;stroke-miterlimit:4;stroke-opacity:1;stroke-dasharray:none;stroke-dashoffset:0"
       d="m 549.22426,167.0877 c -5.84375,-0.076 -14.11719,-0.15144 -18.38542,-0.1677 l -7.76041,-0.0296 0,-8.11211 0,-8.1121 5.57291,0.0975 c 5.86624,0.10259 41.56266,0.50408 44.6875,0.50261 l 1.82292,-8.5e-4 0,8.02083 0,8.02084 -7.65625,-0.0406 c -4.21094,-0.0224 -12.4375,-0.10281 -18.28125,-0.17878 z"
       id="path3082"
       inkscape:connector-curvature="0" />
    <path
       style="fill:#44aa00;fill-opacity:1;stroke:#000000;stroke-width:0.3125;stroke-linejoin:round;stroke-miterlimit:4;stroke-opacity:1;stroke-dasharray:none;stroke-dashoffset:0"
       d="m 553.91176,183.44097 c -11.40104,-0.14158 -23.0026,-0.26712 -25.78125,-0.27897 l -5.05208,-0.0216 0,-7.58687 0,-7.58687 5.57291,0.0925 c 6.34323,0.1053 41.65739,0.5005 44.58334,0.49892 l 1.92708,-10e-4 0,7.60416 c 0,5.96233 -0.0562,7.59693 -0.26042,7.57064 -0.14323,-0.0184 -9.58854,-0.14936 -20.98958,-0.29095 z"
       id="path3084"
       inkscape:connector-curvature="0" />
    <path
       style="fill:#44aa00;fill-opacity:1;stroke:#000000;stroke-width:0.31250000000000000;stroke-linejoin:round;stroke-miterlimit:4;stroke-opacity:1;stroke-dasharray:none;stroke-dashoffset:0"
       d="m 550.37009,216.98264 c -11.40104,-0.14158 -22.20573,-0.26712 -24.01041,-0.27897 l -3.28125,-0.0215 0,-7.35717 0,-7.35716 4.63541,0.0678 c 7.04912,0.10312 42.66258,0.48187 45.20834,0.48079 l 2.23958,-9.5e-4 0,7.39583 0,7.39584 -2.03125,-0.0335 c -1.11719,-0.0184 -11.35938,-0.14937 -22.76042,-0.29095 z"
       id="path3086"
       inkscape:connector-curvature="0" />
    <path
       style="fill:#ff0000;fill-opacity:1;stroke:#000000;stroke-width:0.3125;stroke-linejoin:round;stroke-miterlimit:4;stroke-opacity:1;stroke-dasharray:none;stroke-dashoffset:0"
       d="m 547.87009,201.04613 c -5.90104,-0.0758 -13.89323,-0.15124 -17.76041,-0.1676 l -7.03125,-0.0298 0,-8.26301 0,-8.26302 14.01041,0.13896 c 7.70573,0.0764 19.42448,0.20064 26.04167,0.27602 l 12.03125,0.13706 0,8.19533 0,8.19533 -8.28125,-0.0407 c -4.55469,-0.0224 -13.10938,-0.10276 -19.01042,-0.17859 z"
       id="path3088"
       inkscape:connector-curvature="0" />
    <path
       style="fill:#ff0000;fill-opacity:1;stroke:#000000;stroke-width:0.3125;stroke-linejoin:round;stroke-miterlimit:4;stroke-opacity:1;stroke-dasharray:none;stroke-dashoffset:0"
       d="m 523.07843,227.82795 0,-9.89583 5.46875,0.0214 c 3.00781,0.0118 14.70312,0.12895 25.98958,0.26042 l 20.52083,0.23903 0.0542,9.63542 0.0542,9.63541 -26.04375,0 -26.04374,0 0,-9.89583 z"
       id="path3090"
       inkscape:connector-curvature="0" />
    <path
       style="fill:#ffff00;fill-opacity:1;stroke:#000000;stroke-width:0.31250000000000000;stroke-linejoin:round;stroke-miterlimit:4;stroke-opacity:1;stroke-dasharray:none;stroke-dashoffset:0"
       d="m 549.01593,149.79624 c -5.95834,-0.0757 -14.23177,-0.15105 -18.38542,-0.16752 l -7.55208,-0.0299 0,-7.90259 0,-7.9026 5.67708,0.0958 c 5.87243,0.0991 41.93617,0.50313 44.79167,0.50181 l 1.61458,-7.5e-4 0,7.8125 0,7.8125 -7.65625,-0.0408 c -4.21094,-0.0224 -12.53125,-0.10273 -18.48958,-0.1784 z"
       id="path3092"
       inkscape:connector-curvature="0" />
    <text
       xml:space="preserve"
       style="font-size:40px;font-style:normal;font-weight:normal;line-height:125%;letter-spacing:0px;word-spacing:0px;fill:#000000;fill-opacity:1;stroke:none;font-family:Sans"
       x="577.70837"
       y="115.00001"
       id="text3094"
       sodipodi:linespacing="125%"><tspan
         sodipodi:role="line"
         id="tspan3096"
         x="577.70837"
         y="115.00001"
         style="font-size:18px">Livre</tspan></text>
    <text
       xml:space="preserve"
       style="font-size:40px;font-style:normal;font-weight:normal;line-height:125%;letter-spacing:0px;word-spacing:0px;fill:#000000;fill-opacity:1;stroke:none;font-family:Sans"
       x="577.5"
       y="197.91667"
       id="text3098"
       sodipodi:linespacing="125%"><tspan
         sodipodi:role="line"
         id="tspan3100"
         x="577.5"
         y="197.91667"
         style="font-size:16px">Ocupado</tspan></text>
    <text
       xml:space="preserve"
       style="font-size:40px;font-style:normal;font-weight:normal;line-height:125%;letter-spacing:0px;word-spacing:0px;fill:#000000;fill-opacity:1;stroke:none;font-family:Sans"
       x="579.79169"
       y="147.50002"
       id="text3102"
       sodipodi:linespacing="125%"><tspan
         sodipodi:role="line"
         id="tspan3104"
         x="579.79169"
         y="147.50002"
         style="font-size:16px">Sinal</tspan></text>
    <path
       style="fill:none;stroke:#000000;stroke-width:1px;stroke-linecap:butt;stroke-linejoin:miter;stroke-opacity:1;marker-end:url(#marker4139)"
       d="m 488.12499,256.875 0.625,-77.29166 33.125,0"
       id="path3106"
       inkscape:connector-curvature="0" />
    <path
       style="fill:none;stroke:#000000;stroke-width:1px;stroke-linecap:butt;stroke-linejoin:miter;stroke-opacity:1;marker-start:none;marker-end:url(#marker4139)"
       d="m 576.24999,210.00001 48.125,0 -0.41667,92.29166 26.45834,0"
       id="path3108"
       inkscape:connector-curvature="0" />
    <path
       style="fill:none;stroke:#000000;stroke-width:1px;stroke-linecap:butt;stroke-linejoin:miter;stroke-opacity:1;marker-end:url(#marker4139)"
       d="m 363.12499,320 39.58334,0"
       id="path4502"
       inkscape:connector-curvature="0" />
  </g>
</svg>
